<svg xmlns="http://www.w3.org/2000/svg" width="400" height="400" viewBox="0 0 400 400"><path fill="#686059" d="M364.254 33.4H37.75c-5.292 0-9.609 4.315-9.609 9.609v219.352c0 5.931 4.316 10.785 9.609 10.785h73.924c2.573-1.017 5.199-2.038 7.886-3.081 5.199-2.019 10.572-4.098 15.93-6.343 12.142-5.06 19.521-8.4 23.787-10.438l.123-12.683c-1.885-2.344-4.077-5.738-6.132-10.333H47.449V57.3h306.325v172.969H248.733c-2.051 4.596-4.25 7.989-6.122 10.333l.113 12.683c4.258 2.032 11.627 5.38 23.78 10.438 5.358 2.237 10.737 4.323 15.924 6.335 2.697 1.05 5.313 2.071 7.902 3.087h73.925c5.285 0 9.603-4.854 9.603-10.784V43.009c-.003-5.293-4.319-9.609-9.604-9.609z"/><path fill="#F79226" d="M319.07 302.597c-7.384-11.514-32.174-18.666-56.725-28.898-.451-.187-.87-.358-1.314-.552-23.401-9.787-29.046-13.222-29.046-13.222l-.219-23.548s2.224-1.732 4.827-6.108c2.695-4.521 5.764-11.847 7.225-23.104 5.737 1.667 11.78-8.575 12.099-13.981.319-5.192-.795-19.623-7.809-18.171 1.435-10.864 2.471-20.624 1.972-25.789-1.826-18.919-20.445-38.861-49.081-38.861-28.637 0-47.258 19.941-49.085 38.861-.501 5.167.541 14.924 1.976 25.789-7.016-1.452-8.132 12.979-7.813 18.171.326 5.406 6.357 15.648 12.119 13.981 1.448 11.257 4.521 18.582 7.212 23.104 2.604 4.376 4.831 6.108 4.831 6.108l-.226 23.548s-5.651 3.435-29.049 13.222a77.89 77.89 0 0 1-1.321.552c-24.54 10.232-49.333 17.385-56.711 28.898-6.613 10.308-4.628 45.45-4.628 45.45h245.387s1.993-35.143-4.621-45.45z"/><path d="M72.613 96.622l13.763 13.755-13.763 13.763 5.911 5.911L98.2 110.377 78.524 90.709zm36.391 5.401h25.075v8.354h-25.075zm237.034 265.712H55.464s-9.137-53.503 0-62.289c45.65-43.901 239.209-39.917 290.574 0 10.273 7.99 0 62.289 0 62.289z" fill="#686059"/><path fill="#3F59A8" d="M269.5 64.5h74v47h-74z"/><path fill="#CC2949" d="M269.5 119.773h74v47h-74z"/><path fill="#F8E711" d="M269.5 176.5h74v47h-74z"/></svg>