<svg xmlns="http://www.w3.org/2000/svg" width="645" height="585" viewBox="0 0 645 585"><path fill="#FFF" d="M297.297 550.868c-13.775-15.437-48.17-45.529-76.435-66.874-83.744-63.242-95.142-72.395-129.144-103.703-62.683-57.721-89.304-115.71-89.213-194.34.044-38.384 2.661-53.172 13.41-75.797 18.236-38.386 45.1-66.909 79.445-84.355 24.326-12.355 36.323-17.845 76.945-18.07 42.493-.235 51.438 4.72 76.435 18.452 30.424 16.714 61.74 52.436 68.213 77.811l3.998 15.672 9.86-21.584c55.716-121.973 233.598-120.148 295.502 3.031 19.638 39.076 21.794 122.513 4.38 169.513-22.715 61.309-65.38 108.05-164.006 179.676-64.681 46.974-137.885 118.046-142.981 128.028-5.916 11.589-.282 1.817-26.409-27.46z"/></svg>