<?xml version="1.0" encoding="utf-8"?>
<!-- Generator: Adobe Illustrator 16.0.0, SVG Export Plug-In . SVG Version: 6.00 Build 0)  -->
<!DOCTYPE svg PUBLIC "-//W3C//DTD SVG 1.1//EN" "http://www.w3.org/Graphics/SVG/1.1/DTD/svg11.dtd">
<svg version="1.1" id="Layer_1" xmlns="http://www.w3.org/2000/svg" xmlns:xlink="http://www.w3.org/1999/xlink" x="0px" y="0px"
	 width="400px" height="400px" viewBox="0 0 400 400" enable-background="new 0 0 400 400" xml:space="preserve">
<g>
	<path fill="#FFFFFF" d="M251.62,40.952l4.172-6.25l4.097-6.161l9.223-13.834c1.125-1.698,0.671-3.985-1.013-5.125
		c-1.721-1.133-4.008-0.678-5.147,1.028l-9.879,14.833l-4.156,6.235l-4.217,6.317c-13.365-5.185-28.265-8.09-43.998-8.09
		c-15.727,0-30.626,2.905-43.991,8.09l-4.194-6.317l-4.157-6.235l-9.894-14.84c-1.132-1.698-3.427-2.153-5.133-1.028
		c-1.698,1.133-2.153,3.427-1.028,5.126l9.215,13.834l4.112,6.161l4.172,6.25c-31.386,14.616-52.618,42.307-52.618,74.005h207.05
		C304.237,83.259,283.013,55.568,251.62,40.952z M156.345,85.375c-6.138,0-11.1-4.969-11.1-11.093c0-6.131,4.962-11.085,11.1-11.085
		c6.124,0,11.085,4.954,11.085,11.085C167.431,80.405,162.469,85.375,156.345,85.375z M245.071,85.375
		c-6.123,0-11.085-4.969-11.085-11.093c0-6.131,4.962-11.085,11.085-11.085c6.139,0,11.101,4.954,11.101,11.085
		C256.172,80.405,251.21,85.375,245.071,85.375z"/>
	<path fill="#FFFFFF" d="M98.781,129.745h-1.594v18.445v15.056v129.193c0,12.918,10.497,23.422,23.415,23.422h16.903
		c-0.566,1.952-0.886,4.016-0.886,6.153v1.236v7.391v38.217c0,12.248,9.938,22.186,22.192,22.186
		c12.248,0,22.186-9.938,22.186-22.186v-38.217v-7.391v-1.236c0-2.131-0.328-4.201-0.879-6.153h41.189
		c-0.559,1.952-0.871,4.016-0.871,6.153v1.236v7.391v38.217c0,12.248,9.938,22.186,22.178,22.186
		c12.247,0,22.186-9.938,22.186-22.186v-38.217v-7.391v-1.236c0-2.131-0.313-4.201-0.88-6.153h16.904
		c12.91,0,23.414-10.504,23.414-23.422V163.246V148.19v-18.445h-1.595H98.781z"/>
	<path fill="#FFFFFF" d="M60.207,129.745c-12.254,0-22.185,9.923-22.185,22.192v94.895c0,12.24,9.931,22.178,22.185,22.178
		c12.24,0,22.178-9.938,22.178-22.178V151.93C82.385,139.668,72.454,129.745,60.207,129.745z"/>
	<path fill="#FFFFFF" d="M341.225,129.745c-12.262,0-22.185,9.923-22.185,22.192v94.895c0,12.24,9.923,22.178,22.185,22.178
		c12.24,0,22.163-9.938,22.163-22.178V151.93C363.388,139.668,353.465,129.745,341.225,129.745z"/>
</g>
</svg>
