<?xml version="1.0" encoding="utf-8"?>
<!-- Generator: Adobe Illustrator 16.0.0, SVG Export Plug-In . SVG Version: 6.00 Build 0)  -->
<!DOCTYPE svg PUBLIC "-//W3C//DTD SVG 1.1//EN" "http://www.w3.org/Graphics/SVG/1.1/DTD/svg11.dtd">
<svg version="1.1" id="Layer_1" xmlns="http://www.w3.org/2000/svg" xmlns:xlink="http://www.w3.org/1999/xlink" x="0px" y="0px"
	 width="400px" height="400px" viewBox="0 0 400 400" enable-background="new 0 0 400 400" xml:space="preserve">
<g>
	<path fill="#FFFFFF" d="M233.635,222.768c-6.047-5.083-15.183-7.621-27.399-7.621h-35.403v60.814h35.403
		c12.109,0,21.191-2.538,27.239-7.622c6.169-5.084,9.242-12.752,9.242-23.019C242.717,235.268,239.705,227.752,233.635,222.768z"/>
	<path fill="#FFFFFF" d="M225.821,168.177c4.894-4.136,7.34-10.26,7.34-18.355c0-7.981-2.446-14.043-7.34-18.195
		c-4.923-4.25-12.124-6.375-21.63-6.375h-33.367v49.148h33.367C213.697,174.399,220.898,172.328,225.821,168.177z"/>
	<path fill="#FFFFFF" d="M327.322,13.025H75.448c-33.194,0-60.107,26.994-60.107,60.302V327.57
		c0,33.301,26.914,60.303,60.107,60.303h251.874c33.201,0,60.104-27.002,60.104-60.303V73.327
		C387.426,40.019,360.523,13.025,327.322,13.025z M280.161,300.218c-15.244,11.001-38.423,16.475-69.545,16.475h-100.09V84.504
		h90.534c32.467,0,55.968,4.877,70.484,14.617c14.625,9.754,21.934,25.35,21.934,46.816c0,11.299-2.668,20.939-7.997,28.928
		c-5.32,7.882-13.057,13.738-23.179,17.568c12.95,3.738,22.98,10.626,30.075,20.687c7.109,10.068,10.642,22.399,10.642,37.017
		C303.034,272.536,295.412,289.232,280.161,300.218z"/>
</g>
</svg>
