<?xml version="1.0" encoding="utf-8"?>
<!-- Generator: Adobe Illustrator 16.0.0, SVG Export Plug-In . SVG Version: 6.00 Build 0)  -->
<!DOCTYPE svg PUBLIC "-//W3C//DTD SVG 1.1//EN" "http://www.w3.org/Graphics/SVG/1.1/DTD/svg11.dtd">
<svg version="1.1" id="Layer_1" xmlns="http://www.w3.org/2000/svg" xmlns:xlink="http://www.w3.org/1999/xlink" x="0px" y="0px"
	 width="400px" height="400px" viewBox="0 0 400 400" enable-background="new 0 0 400 400" xml:space="preserve">
<g id="Page-1">
	<g id="icon-132-cloud">
		<path id="cloud" fill="#FFFFFF" d="M350.027,164.788c26.443,10.731,45.042,36.668,45.042,66.965
			c0,39.819-32.342,72.247-72.249,72.247H77.171C37.187,304,4.93,271.658,4.93,231.753c0-29.634,17.914-55.175,43.518-66.301l0,0
			c-0.113-1.968-0.169-3.951-0.169-5.948c0-55.865,45.282-101.147,101.147-101.147c37.753,0,70.667,20.687,88.053,51.336
			c10.499-5.115,22.295-7.987,34.769-7.987C310.517,101.706,342.465,128.756,350.027,164.788z"/>
	</g>
</g>
</svg>
