<?xml version="1.0" encoding="utf-8"?>
<!-- Generator: Adobe Illustrator 16.0.0, SVG Export Plug-In . SVG Version: 6.00 Build 0)  -->
<!DOCTYPE svg PUBLIC "-//W3C//DTD SVG 1.1//EN" "http://www.w3.org/Graphics/SVG/1.1/DTD/svg11.dtd">
<svg version="1.1" id="Layer_1" xmlns="http://www.w3.org/2000/svg" xmlns:xlink="http://www.w3.org/1999/xlink" x="0px" y="0px"
	 width="400px" height="400px" viewBox="0 0 400 400" enable-background="new 0 0 400 400" xml:space="preserve">
<g id="Layer_x0020_1">
	<path fill="#FFFFFF" d="M349.116,352.191L380.833,8.508L381.249,4h-4.674H28.425h-4.674l0.416,4.508L55.85,352.247l0.264,2.866
		l2.854,0.766l142.181,38.18h2.279l142.568-38.236l2.854-0.766L349.116,352.191L349.116,352.191z M202.792,80.044h103.895
		l-3.127,35.169l-102.493,44.074l1.726,7.93h96.187l-11.071,122.721l-85.462,22.921l-85.435-22.881l-5.425-58.774h35.179
		l2.819,29.799l0.273,2.889l2.895,0.744l48.951,12.579l2.23-0.016l48.388-13.01l2.881-0.775l0.254-2.873l4.837-55.038l0.396-4.492
		h-4.671h-53.225h-94.097l-3.202-35.321l98.976-40.978l7.025-2.912l-1.677-7.962h-7.025h-101.81l-3.101-33.793H202.35
		L202.792,80.044L202.792,80.044z"/>
</g>
</svg>
