<?xml version="1.0" encoding="utf-8"?>
<!-- Generator: Adobe Illustrator 16.0.0, SVG Export Plug-In . SVG Version: 6.00 Build 0)  -->
<!DOCTYPE svg PUBLIC "-//W3C//DTD SVG 1.1//EN" "http://www.w3.org/Graphics/SVG/1.1/DTD/svg11.dtd">
<svg version="1.1" id="Layer_1" xmlns="http://www.w3.org/2000/svg" xmlns:xlink="http://www.w3.org/1999/xlink" x="0px" y="0px"
	 width="400px" height="400px" viewBox="0 0 400 400" enable-background="new 0 0 400 400" xml:space="preserve">
<path fill="#FFFFFF" d="M159.461,167.879l87.466,40.048l88.424-77.532c1.29-6.435,1.933-12.982,1.921-19.543
	c0-54.464-44.21-98.677-98.676-98.677c-32.68,0-63.114,16.018-81.376,42.93l-14.739,76.252L159.461,167.879L159.461,167.879z"/>
<path fill="#FFFFFF" d="M68.793,260.469c-1.28,6.408-1.922,13.136-1.922,19.863c0,54.465,44.532,98.998,98.997,98.998
	c33.001,0,63.437-16.339,82.018-43.251l14.418-76.251l-19.543-37.164l-87.785-40.047L68.793,260.469L68.793,260.469z"/>
<path fill="#FFFFFF" d="M68.154,108.928l59.912,14.099l13.455-68.242c-8.329-6.408-18.262-9.611-28.834-9.611
	c-25.952,0-47.416,21.145-47.416,47.416c0,5.447,0.961,11.214,2.882,16.338H68.154z"/>
<path fill="#FFFFFF" d="M63.026,123.345c-26.912,8.651-45.494,34.602-45.494,62.795c0,27.553,16.98,52.223,42.611,61.833
	l84.261-76.25l-15.38-32.998l-65.998-15.379V123.345z"/>
<path fill="#FFFFFF" d="M263.265,335.758c8.33,6.41,18.263,9.934,28.514,9.934c25.952,0,47.417-21.146,47.417-47.416
	c0-5.768-0.961-11.215-2.882-16.341l-59.911-14.096L263.265,335.758L263.265,335.758z"/>
<path fill="#FFFFFF" d="M275.439,252.139l66,15.379c26.91-8.97,45.493-34.601,45.493-62.796c0-27.553-16.979-51.9-42.612-61.832
	l-86.501,75.61L275.439,252.139L275.439,252.139z"/>
</svg>
