<?xml version="1.0" encoding="utf-8"?>
<!-- Generator: Adobe Illustrator 16.0.0, SVG Export Plug-In . SVG Version: 6.00 Build 0)  -->
<!DOCTYPE svg PUBLIC "-//W3C//DTD SVG 1.1//EN" "http://www.w3.org/Graphics/SVG/1.1/DTD/svg11.dtd">
<svg version="1.1" id="Layer_1" xmlns="http://www.w3.org/2000/svg" xmlns:xlink="http://www.w3.org/1999/xlink" x="0px" y="0px"
	 width="400px" height="400px" viewBox="0 0 400 400" enable-background="new 0 0 400 400" xml:space="preserve">
<path fill="#FFFFFF" d="M13,13v375.5h375.5V13H13z M165.115,146.215h-53.274v41.666h49.668v22.625h-49.668v64.058H87.214V123.594
	h77.901V146.215z M283.654,274.563h-22.827l-11.611-44.355c-3.011-11.413-5.211-21.72-7.403-34.943h-0.397
	c-2.009,13.446-4.621,24.202-7.41,34.943l-12.422,44.355h-23.029l-28.835-109.085h25.233l10.214,49.497
	c2.215,11.658,4.407,23.538,6.218,35.395h0.397c2.002-11.864,5.211-23.966,8.007-35.165l12.612-49.726h20.023l12.216,48.381
	c2.995,12.773,5.607,24.646,7.808,36.51h0.397c1.604-11.864,3.805-23.736,6.401-36.51l10.818-48.381h24.24L283.654,274.563z"/>
</svg>
