<?xml version="1.0" encoding="utf-8"?>
<!-- Generator: Adobe Illustrator 16.0.0, SVG Export Plug-In . SVG Version: 6.00 Build 0)  -->
<!DOCTYPE svg PUBLIC "-//W3C//DTD SVG 1.1//EN" "http://www.w3.org/Graphics/SVG/1.1/DTD/svg11.dtd">
<svg version="1.1" id="Layer_1" xmlns="http://www.w3.org/2000/svg" xmlns:xlink="http://www.w3.org/1999/xlink" x="0px" y="0px"
	 width="400px" height="400px" viewBox="0 0 400 400" enable-background="new 0 0 400 400" xml:space="preserve">
<g id="_x33_">
	<g>
		<path fill="#686059" d="M364.254,33.4H37.75c-5.292,0-9.609,4.315-9.609,9.609v192.346v4.515v22.491
			c0,5.931,4.316,10.785,9.609,10.785h73.924c2.573-1.017,5.199-2.038,7.886-3.081c5.199-2.019,10.572-4.098,15.93-6.343
			c12.142-5.06,19.521-8.4,23.787-10.438l0.123-12.683c-1.885-2.344-4.077-5.738-6.132-10.333H47.449V57.3h306.325v172.969H248.733
			c-2.051,4.596-4.25,7.989-6.122,10.333l0.113,12.683c4.258,2.032,11.627,5.38,23.78,10.438c5.358,2.237,10.737,4.323,15.924,6.335
			c2.697,1.05,5.313,2.071,7.902,3.087h73.925c5.285,0,9.603-4.854,9.603-10.784v-22.491v-4.516V43.009
			C373.855,37.716,369.539,33.4,364.254,33.4z"/>
		<path fill="#F79226" d="M319.07,302.597c-7.384-11.514-32.174-18.666-56.725-28.898c-0.451-0.187-0.87-0.358-1.314-0.552
			c-23.401-9.787-29.046-13.222-29.046-13.222l-0.219-23.548c0,0,2.224-1.732,4.827-6.108c2.695-4.521,5.764-11.847,7.225-23.104
			c5.737,1.667,11.78-8.575,12.099-13.981c0.319-5.192-0.795-19.623-7.809-18.171c1.435-10.864,2.471-20.624,1.972-25.789
			c-1.826-18.919-20.445-38.861-49.081-38.861c-28.637,0-47.258,19.941-49.085,38.861c-0.501,5.167,0.541,14.924,1.976,25.789
			c-7.016-1.452-8.132,12.979-7.813,18.171c0.326,5.406,6.357,15.648,12.119,13.981c1.448,11.257,4.521,18.582,7.212,23.104
			c2.604,4.376,4.831,6.108,4.831,6.108l-0.226,23.548c0,0-5.651,3.435-29.049,13.222c-0.452,0.193-0.863,0.366-1.321,0.552
			c-24.54,10.232-49.333,17.385-56.711,28.898c-6.613,10.308-4.628,45.45-4.628,45.45H201h122.691
			C323.691,348.047,325.684,312.904,319.07,302.597z"/>
	</g>
	<g>
		<polygon fill="#686059" points="72.613,96.622 86.376,110.377 72.613,124.14 78.524,130.051 98.2,110.377 78.524,90.709 		"/>
		<rect x="109.004" y="102.023" fill="#686059" width="25.075" height="8.354"/>
	</g>
	<path fill="#686059" d="M346.038,367.735H55.464c0,0-9.137-53.503,0-62.289c45.65-43.901,239.209-39.917,290.574,0
		C356.311,313.436,346.038,367.735,346.038,367.735z"/>
</g>
<rect x="269.5" y="64.5" fill="#3F59A8" width="74" height="47"/>
<rect x="269.5" y="119.773" fill="#CC2949" width="74" height="47"/>
<rect x="269.5" y="176.5" fill="#F8E711" width="74" height="47"/>
</svg>
