<?xml version="1.0" encoding="utf-8"?>
<!-- Generator: Adobe Illustrator 16.0.0, SVG Export Plug-In . SVG Version: 6.00 Build 0)  -->
<!DOCTYPE svg PUBLIC "-//W3C//DTD SVG 1.1//EN" "http://www.w3.org/Graphics/SVG/1.1/DTD/svg11.dtd">
<svg version="1.1" id="Layer_1" xmlns="http://www.w3.org/2000/svg" xmlns:xlink="http://www.w3.org/1999/xlink" x="0px" y="0px"
	 width="400px" height="400px" viewBox="0 0 400 400" enable-background="new 0 0 400 400" xml:space="preserve">
<g>
	<path fill="#FFFFFF" d="M232.629,273.479c36.829-4.349,76.001-17.74,76.001-81.353c0-18.08-6.366-32.814-16.737-44.2
		c1.674-4.349,7.025-20.756-2.018-43.52c0,0-13.393-4.354-44.858,16.736c-13.391-3.679-28.12-6.026-41.847-6.026
		c-14.067,0-28.801,2.348-41.858,6.026c-31.806-21.09-45.198-16.736-45.198-16.736c-9.037,22.763-3.678,39.171-2.006,43.52
		c-10.38,11.384-16.742,26.12-16.742,44.2c0,63.612,39.171,77.004,76,81.353c-4.684,4.025-9.037,11.72-10.71,22.435
		c-9.378,4.015-33.819,11.718-48.548-13.727c0,0-8.708-15.731-25.11-16.736c0,0-16.407-0.333-1.338,10.036
		c0,0,11.044,5.028,18.415,24.106c0,0,10.04,31.812,56.241,21.766v28.455c0,4.359-3.345,9.377-11.713,8.038
		C84.978,336.088,37.773,273.813,37.773,200.83c0-91.404,73.987-165.391,165.397-165.391c91.065,0,165.393,73.987,165.057,165.391
		c0,72.983-47.21,134.926-112.829,157.022c-8.373,1.674-11.719-3.344-11.719-8.038v-45.861
		C243.679,288.544,238.65,278.509,232.629,273.479L232.629,273.479z M392,201.17C392,96.704,307.292,12,203.17,12
		C98.703,12,14,96.704,14,201.17C14,305.293,98.703,390,203.17,390C307.292,390,392,305.293,392,201.17L392,201.17z"/>
</g>
</svg>
