<?xml version="1.0" encoding="utf-8"?>
<!-- Generator: Adobe Illustrator 16.0.0, SVG Export Plug-In . SVG Version: 6.00 Build 0)  -->
<!DOCTYPE svg PUBLIC "-//W3C//DTD SVG 1.1//EN" "http://www.w3.org/Graphics/SVG/1.1/DTD/svg11.dtd">
<svg version="1.1" id="Layer_1" xmlns="http://www.w3.org/2000/svg" xmlns:xlink="http://www.w3.org/1999/xlink" x="0px" y="0px"
	 width="512px" height="512px" viewBox="0 0 512 512" enable-background="new 0 0 512 512" xml:space="preserve">
<path fill="#FFFFFF" d="M346.208,490.119l5.549-80.791l15.32-22.854c0,0-34.869,12.465-93.248,12.465
	c-58.378,0-92.72-12.234-92.72-12.234l17.17,24.93l6.074,78.484c0,8.414,31.754,15.234,70.928,15.234
	C314.453,505.354,346.208,498.533,346.208,490.119 M328.706,112.835l11.646-40.226l64.494-59.302L387.848,0.656l-68.28,63.171
	l-13.521,48.059c-10.178-0.297-20.361-0.445-30.543-0.443c-71.913,0-130.209,7.162-130.209,15.995s58.296,15.993,130.209,15.993
	c71.91,0,130.205-7.16,130.205-15.993C405.709,120.933,374.093,115.334,328.706,112.835"/>
<path fill="#FFFFFF" d="M321.932,135.362c0,0-2.521,0.494-9.941,0.522c-7.422,0.027-12.691-0.041-14.791-1.712
	c-0.563-0.449-0.872-1.339-0.87-1.942c0.007-1.148,0.938-1.824,2.128-2.248l1.123,1.541c-0.488,0.147-0.768,0.321-0.769,0.508
	c-0.005,0.871,7.588,1.468,13.395,1.403c5.809-0.062,12.827-0.48,12.834-1.339c0-0.261-0.532-0.505-1.456-0.699l1.119-1.53
	c1.506,0.409,2.818,1.198,2.816,2.563C327.505,134.75,324.124,135.103,321.932,135.362"/>
<path fill="#FFFFFF" d="M404.72,13.425c1.622-1.637-0.839-5.823-5.497-9.349c-4.657-3.525-9.75-5.057-11.375-3.42
	c-1.622,1.637,0.84,5.823,5.499,9.348C398.004,13.529,403.097,15.062,404.72,13.425 M343.107,292.779
	c-1.529-12.853,32.166-31.463,23.519-32.059c-18.615,0.929-27.88,19.063-37.247,38.056c-3.432,6.96-15.176,36.642-22.879,32.987
	c-7.701-3.653,9.982-28.06,14.94-42.554c-5.721,3.663-26.693,17.904-32.101,4.567c-8.689,6.45-27.261,9.945-25.165-6.997
	c-4.623,7.157-15,17.146-27.454,12.996c-16.357-5.452,9.477-50.98,15.901-48.684c6.424,2.296-1.296,12.668-3.32,16.695
	c-4.446,8.863-9.585,20.006-6.152,22.287c5.88,3.908,21.881-14.784,22.236-15.195c2.993-3.454,11.519-26.056,18.39-23.461
	c6.872,2.596-17.14,32.438-8.162,38.361c1.811,1.195,9.22-0.738,13.726-4.999c2.917-2.756,1.913-8.86,11.635-29.116
	c9.719-20.255,18.382-45.479,25.047-43.558c6.667,1.921,1.172,14.867-1.219,19.694c-11.223,22.651-30.627,60.073-21.477,57.24
	c9.152-2.832,13.918-2.999,22.879-12.161c8.962-9.164,8.548-24.258,14.522-23.938c5.974,0.322,4.971,5.162,3.522,8.847
	c5.879-5.879,27.867-18.26,33.175-5.998c6.287,14.518-31.459,35.486-22.047,34.418c9.176-1.043,24.042-9.271,30.389-16.752
	l17.471-137.251c0,0-17.579,12.713-129.425,12.713c-111.847,0-127.607-12.448-127.607-12.448l14.873,125.278
	c7.896-19.608,26.643-59.269,56.194-57.938c13.443,0.605,31.389,23.224,16.018,23.991c-6.507,0.323-7.167-11.289-14.872-12.996
	c-5.561-1.231-13.302,2.719-18.303,6.998c-9.977,8.532-31.435,42.195-28.6,58.979c3.613,21.396,33.789-7.436,38.895-15.995
	c3.596-6.03,6.026-23.895,13.89-22.021c7.866,1.875-0.687,20.311-6.387,36.612c-6.405,18.303-9.771,37.61-17.799,35.389
	c-8.027-2.219,5.048-25.848,4.575-29.988c-7.544,6.084-21.444,21.484-39.229,13.862l9.238,77.796c0,0,24.551,16.951,98.508,16.951
	c73.958,0,99.418-16.687,99.418-16.687l11.47-90.107C374.71,294.583,345.008,308.763,343.107,292.779"/>
</svg>
