<?xml version="1.0" encoding="utf-8"?>
<!-- Generator: Adobe Illustrator 16.0.0, SVG Export Plug-In . SVG Version: 6.00 Build 0)  -->
<!DOCTYPE svg PUBLIC "-//W3C//DTD SVG 1.1//EN" "http://www.w3.org/Graphics/SVG/1.1/DTD/svg11.dtd">
<svg version="1.1" id="svg2" xmlns:svg="http://www.w3.org/2000/svg"
	 xmlns="http://www.w3.org/2000/svg" xmlns:xlink="http://www.w3.org/1999/xlink" x="0px" y="0px" width="645px" height="585px"
	 viewBox="0 0 645 585" enable-background="new 0 0 645 585" xml:space="preserve">
<g id="layer1">
	<path id="path2417" fill="#FFFFFF" d="M297.297,550.868c-13.775-15.437-48.17-45.529-76.435-66.874
		c-83.744-63.242-95.142-72.395-129.144-103.703C29.035,322.57,2.414,264.581,2.505,185.951c0.044-38.384,2.661-53.172,13.41-75.797
		C34.151,71.768,61.015,43.245,95.36,25.799c24.326-12.355,36.323-17.845,76.945-18.07c42.493-0.235,51.438,4.72,76.435,18.452
		c30.424,16.714,61.74,52.436,68.213,77.811l3.998,15.672l9.86-21.584c55.716-121.973,233.598-120.148,295.502,3.031
		c19.638,39.076,21.794,122.513,4.38,169.513c-22.715,61.309-65.38,108.05-164.006,179.676
		c-64.681,46.974-137.885,118.046-142.981,128.028C317.79,589.917,323.424,580.145,297.297,550.868z"/>
	<g id="g2221" transform="translate(129.28571,-64.285714)">
	</g>
</g>
</svg>
