<?xml version="1.0" encoding="utf-8"?>
<!-- Generator: Adobe Illustrator 16.0.0, SVG Export Plug-In . SVG Version: 6.00 Build 0)  -->
<!DOCTYPE svg PUBLIC "-//W3C//DTD SVG 1.1//EN" "http://www.w3.org/Graphics/SVG/1.1/DTD/svg11.dtd">
<svg version="1.1"
	 id="Layer_1" xmlns:svg="http://www.w3.org/2000/svg" xmlns:cc="http://creativecommons.org/ns#" xmlns:dc="http://purl.org/dc/elements/1.1/" xmlns:inkscape="http://www.inkscape.org/namespaces/inkscape" xmlns:sodipodi="http://sodipodi.sourceforge.net/DTD/sodipodi-0.dtd" xmlns:rdf="http://www.w3.org/1999/02/22-rdf-syntax-ns#"
	 xmlns="http://www.w3.org/2000/svg" xmlns:xlink="http://www.w3.org/1999/xlink" x="0px" y="0px" width="512px" height="512px"
	 viewBox="0 0 512 512" enable-background="new 0 0 512 512" xml:space="preserve">
<path id="path1901" fill="#FFFFFF" d="M200.215,395.955c0,0-19.567,11.379,13.922,15.229c40.571,4.629,61.31,3.965,106.018-4.498
	c0,0,11.755,7.372,28.172,13.755C248.1,463.399,121.489,417.955,200.215,395.955"/>
<path id="path1903" fill="#FFFFFF" d="M187.968,339.9c0,0-21.946,16.245,11.569,19.71c43.34,4.472,77.568,4.839,136.792-6.567
	c0,0,8.191,8.306,21.074,12.848C236.219,401.326,101.242,368.686,187.968,339.9"/>
<path id="path1905" fill="#FFFFFF" d="M291.217,244.812c24.696,28.434-6.488,54.021-6.488,54.021s62.709-32.373,33.911-72.911
	c-26.899-37.802-47.524-56.587,64.14-121.347C382.779,104.574,207.502,148.351,291.217,244.812"/>
<path id="path1907" fill="#FFFFFF" d="M423.778,437.421c0,0,14.479,11.93-15.948,21.158
	c-57.851,17.525-240.793,22.819-291.612,0.696c-18.268-7.946,15.99-18.974,26.768-21.289c11.238-2.437,17.661-1.983,17.661-1.983
	c-20.317-14.311-131.316,28.102-56.384,40.251C308.621,509.394,476.786,461.329,423.778,437.421"/>
<path id="path1909" fill="#FFFFFF" d="M209.624,281.82c0,0-93.056,22.1-32.952,30.128c25.375,3.397,75.965,2.628,123.087-1.317
	c38.511-3.25,77.178-10.156,77.178-10.156s-13.579,5.814-23.403,12.523c-94.495,24.854-277.045,13.289-224.491-12.131
	C173.487,279.384,209.624,281.82,209.624,281.82"/>
<path id="path1911" fill="#FFFFFF" d="M376.554,375.129c96.058-49.917,51.643-97.885,20.642-91.423
	c-7.598,1.582-10.985,2.951-10.985,2.951s2.822-4.418,8.21-6.329c61.327-21.562,108.494,63.592-19.799,97.316
	C374.621,377.645,376.109,376.318,376.554,375.129"/>
<path id="path1913" fill="#FFFFFF" d="M318.64,0c0,0,53.196,53.216-50.459,135.05c-83.122,65.643-18.955,103.071-0.035,145.834
	c-48.52-43.776-84.126-82.312-60.239-118.178C242.971,110.058,340.102,84.533,318.64,0"/>
<path id="path1915" fill="#FFFFFF" d="M219.063,510.391c92.205,5.902,233.794-3.275,237.149-46.905c0,0-6.446,16.54-76.203,29.675
	c-78.698,14.811-175.763,13.081-233.332,3.589C146.679,496.749,158.462,506.503,219.063,510.391"/>
</svg>
