<?xml version="1.0" encoding="utf-8"?>
<!-- Generator: Adobe Illustrator 16.0.0, SVG Export Plug-In . SVG Version: 6.00 Build 0)  -->
<!DOCTYPE svg PUBLIC "-//W3C//DTD SVG 1.1//EN" "http://www.w3.org/Graphics/SVG/1.1/DTD/svg11.dtd">
<svg version="1.1" id="Layer_1" xmlns="http://www.w3.org/2000/svg" xmlns:xlink="http://www.w3.org/1999/xlink" x="0px" y="0px"
	 width="512px" height="512px" viewBox="0 0 512 512" enable-background="new 0 0 512 512" xml:space="preserve">
<g id="Layer_6">
	<g>
		<path fill="#FFFFFF" d="M33.047,151.303C-10.06,211.44-4.688,289.682,28.235,353.586c0.784,1.532,1.604,3.039,2.414,4.551
			c0.516,0.95,1.002,1.932,1.54,2.871c0.302,0.566,0.643,1.118,0.958,1.659c0.563,1.021,1.136,1.987,1.72,2.983
			c1.023,1.748,2.073,3.487,3.143,5.227c0.594,0.956,1.18,1.911,1.792,2.866c1.187,1.861,2.403,3.707,3.649,5.542
			c0.519,0.783,1.023,1.567,1.555,2.325c1.716,2.488,3.471,4.97,5.281,7.406c0.047,0.061,0.099,0.127,0.152,0.188
			c0.287,0.394,0.604,0.778,0.894,1.168c1.564,2.098,3.182,4.166,4.812,6.218c0.601,0.744,1.211,1.492,1.815,2.24
			c1.456,1.779,2.94,3.545,4.448,5.308c0.565,0.657,1.131,1.319,1.701,1.967c2.022,2.312,4.088,4.616,6.201,6.877
			c0.037,0.041,0.086,0.086,0.125,0.126c0.085,0.097,0.162,0.157,0.237,0.248c2.061,2.186,4.167,4.323,6.303,6.458
			c0.661,0.655,1.339,1.318,2.018,1.976c1.654,1.612,3.334,3.196,5.032,4.789c0.689,0.632,1.373,1.283,2.057,1.895
			c2.268,2.074,4.558,4.105,6.894,6.088c0.041,0.04,0.07,0.071,0.109,0.086c0.396,0.344,0.807,0.674,1.198,0.991
			c2.061,1.733,4.154,3.453,6.264,5.142c0.86,0.673,1.729,1.341,2.595,2.007c1.724,1.341,3.465,2.66,5.221,3.96
			c0.927,0.688,1.857,1.375,2.792,2.062c1.936,1.375,3.885,2.745,5.857,4.075c0.719,0.506,1.414,0.99,2.136,1.472
			c0.198,0.136,0.38,0.277,0.583,0.408c1.87,1.243,3.779,2.452,5.687,3.651c0.82,0.529,1.636,1.076,2.464,1.591
			c2.93,1.796,5.902,3.575,8.906,5.301c0.818,0.449,1.641,0.896,2.461,1.344c2.208,1.238,4.43,2.452,6.685,3.641
			c1.216,0.637,2.469,1.238,3.695,1.845c1.594,0.814,3.172,1.633,4.787,2.411c0.367,0.183,0.748,0.355,1.109,0.521
			c0.646,0.304,1.302,0.603,1.956,0.921c2.505,1.162,5.032,2.3,7.579,3.406c0.544,0.232,1.068,0.466,1.607,0.693
			c2.92,1.238,5.866,2.437,8.845,3.574c0.714,0.278,1.435,0.546,2.155,0.824c2.753,1.027,5.542,2.043,8.341,2.999
			c0.356,0.122,0.698,0.232,1.049,0.348c3.076,1.047,6.18,2.013,9.308,2.959c0.745,0.213,1.495,0.445,2.245,0.657
			c3.182,0.93,6.323,2.037,9.61,2.628c208.458,36.9,269.01-121.604,269.01-121.604c-50.853,64.315-141.126,81.282-226.656,62.392
			c-3.242-0.707-6.383-1.688-9.545-2.599c-0.804-0.232-1.59-0.464-2.382-0.702c-3.086-0.92-6.146-1.885-9.19-2.901
			c-0.417-0.142-0.839-0.293-1.263-0.441c-2.726-0.93-5.419-1.91-8.105-2.917c-0.758-0.293-1.516-0.57-2.271-0.865
			c-2.942-1.127-5.867-2.306-8.75-3.533c-0.597-0.243-1.164-0.5-1.747-0.754c-2.481-1.087-4.936-2.185-7.386-3.327
			c-0.703-0.333-1.412-0.656-2.13-0.995c-1.917-0.905-3.818-1.871-5.708-2.816c-1.268-0.647-2.557-1.264-3.81-1.937
			c-2.313-1.203-4.583-2.452-6.842-3.726c-0.769-0.42-1.542-0.82-2.313-1.251c-3.006-1.717-5.975-3.498-8.912-5.303
			c-0.81-0.499-1.604-1.036-2.403-1.552c-2.131-1.335-4.254-2.689-6.34-4.096c-0.693-0.444-1.364-0.939-2.044-1.391
			c-2.019-1.379-4.013-2.785-5.996-4.206c-0.896-0.643-1.784-1.31-2.656-1.952c-1.815-1.349-3.622-2.704-5.409-4.105
			c-0.805-0.622-1.615-1.248-2.412-1.877c-2.274-1.813-4.519-3.634-6.737-5.505c-0.232-0.202-0.484-0.396-0.737-0.601
			c-2.397-2.049-4.756-4.147-7.082-6.256c-0.677-0.627-1.333-1.233-1.995-1.865c-1.727-1.588-3.421-3.195-5.088-4.839
			c-0.667-0.646-1.339-1.289-1.995-1.931c-2.122-2.113-4.203-4.247-6.245-6.416c-0.102-0.106-0.208-0.202-0.308-0.318
			c-2.159-2.291-4.269-4.633-6.333-6.998c-0.56-0.647-1.104-1.273-1.659-1.912c-1.539-1.8-3.065-3.626-4.555-5.471
			c-0.563-0.657-1.122-1.34-1.675-2.018c-1.791-2.26-3.546-4.51-5.266-6.806C45.795,267.82,28.735,181.099,66.687,109.879"/>
		<path fill="#FFFFFF" d="M166.851,100.636c-31.174,43.548-29.48,101.834-5.164,147.891c4.078,7.72,8.662,15.208,13.79,22.343
			c4.669,6.497,9.845,14.228,16.042,19.444c2.251,2.401,4.597,4.748,6.996,7.049c0.607,0.607,1.226,1.179,1.846,1.775
			c2.326,2.184,4.695,4.343,7.144,6.436c0.101,0.082,0.19,0.177,0.292,0.242c0.026,0.03,0.051,0.042,0.067,0.071
			c2.708,2.302,5.505,4.52,8.346,6.699c0.63,0.465,1.255,0.956,1.894,1.436c2.846,2.119,5.75,4.208,8.729,6.189
			c0.088,0.061,0.164,0.121,0.253,0.192c1.312,0.875,2.654,1.698,3.982,2.543c0.641,0.405,1.248,0.835,1.891,1.213
			c2.125,1.32,4.279,2.611,6.469,3.849c0.31,0.188,0.615,0.339,0.915,0.512c1.887,1.056,3.802,2.098,5.722,3.103
			c0.67,0.37,1.352,0.688,2.035,1.032c1.325,0.673,2.651,1.354,4.002,2.013c0.195,0.092,0.406,0.181,0.602,0.263
			c2.748,1.313,5.521,2.579,8.349,3.771c0.603,0.257,1.227,0.49,1.845,0.737c2.258,0.931,4.543,1.842,6.836,2.695
			c0.974,0.359,1.959,0.697,2.933,1.048c2.08,0.748,4.175,1.435,6.28,2.123c0.953,0.293,1.889,0.597,2.843,0.88
			c2.996,0.899,5.958,2.041,9.083,2.547c160.947,25.888,198.108-94.407,198.108-94.407c-33.499,46.818-98.364,69.173-167.584,51.728
			c-3.073-0.783-6.103-1.637-9.111-2.559c-0.922-0.271-1.828-0.565-2.741-0.859c-2.141-0.672-4.269-1.389-6.377-2.133
			c-0.967-0.339-1.931-0.682-2.878-1.036c-2.313-0.865-4.598-1.755-6.864-2.689c-0.617-0.258-1.244-0.486-1.849-0.759
			c-2.841-1.197-5.639-2.467-8.399-3.781c-1.419-0.68-2.812-1.391-4.208-2.083c-0.808-0.41-1.62-0.814-2.429-1.219
			c-1.796-0.947-3.574-1.921-5.332-2.918c-0.414-0.231-0.849-0.449-1.271-0.698c-2.182-1.238-4.328-2.512-6.453-3.821
			c-0.657-0.41-1.287-0.851-1.942-1.265c-1.404-0.885-2.806-1.779-4.182-2.685c-2.966-1.981-5.854-4.064-8.698-6.178
			c-0.656-0.501-1.315-0.992-1.959-1.492c-30.301-23.223-54.312-54.959-65.73-90.939c-11.966-37.323-9.39-79.208,11.342-113.205"/>
		<path fill="#FFFFFF" d="M279.384,62.782c-18.376,26.251-20.181,58.853-7.43,87.849c13.446,30.776,41,54.919,73.163,66.361
			c1.325,0.48,2.647,0.91,3.995,1.351c0.584,0.177,1.166,0.369,1.76,0.536c1.894,0.581,3.776,1.254,5.734,1.612
			c88.87,16.669,112.975-44.271,119.392-53.241c-21.119,29.512-56.6,36.596-100.14,26.343c-3.441-0.82-7.223-2.022-10.535-3.166
			c-4.25-1.467-8.438-3.145-12.511-5.041c-7.729-3.605-15.098-7.983-21.934-12.99c-38.957-28.698-63.164-83.439-37.741-128.025"/>
	</g>
</g>
</svg>
