<?xml version="1.0" encoding="utf-8"?>
<!-- Generator: Adobe Illustrator 16.0.0, SVG Export Plug-In . SVG Version: 6.00 Build 0)  -->
<!DOCTYPE svg PUBLIC "-//W3C//DTD SVG 1.1//EN" "http://www.w3.org/Graphics/SVG/1.1/DTD/svg11.dtd">
<svg version="1.1" id="Layer_1" xmlns="http://www.w3.org/2000/svg" xmlns:xlink="http://www.w3.org/1999/xlink" x="0px" y="0px"
	 width="400px" height="400px" viewBox="0 0 400 400" enable-background="new 0 0 400 400" xml:space="preserve">
<path fill="#FFFFFF" d="M199.289,380.461c-5.719,0-11.437-1.271-16.417-3.812l-52.014-26.509c-7.747-3.811-4.059-5.08-1.477-5.872
	c10.331-3.178,12.543-3.811,23.61-9.209c1.107-0.634,2.766-0.315,3.874,0.319l40.025,20.476c1.475,0.636,3.505,0.636,4.796,0
	l155.857-77.465c1.475-0.635,2.399-2.222,2.399-3.649V119.967c0-1.587-0.925-2.857-2.399-3.651L201.687,39.01
	c-1.476-0.794-3.321-0.794-4.796,0L41.215,116.316c-1.476,0.793-2.397,2.222-2.397,3.651V274.74c0,1.428,0.922,2.854,2.397,3.649
	l42.608,21.271c23.24,10.001,37.258-1.746,37.258-13.493V133.301c0-2.222,2.03-3.809,4.612-3.809h19.735
	c2.398,0,4.427,1.747,4.427,3.809v152.708c0,26.668-16.785,41.908-46.112,41.908c-9.038,0-16.047,0-35.967-8.413l-40.948-20.319
	c-10.144-5.081-16.416-14.444-16.416-24.444V119.967c0-10.001,6.272-19.366,16.416-24.446l155.858-77.465
	c9.777-4.763,23.059-4.763,32.831,0L371.38,95.521c10.145,5.08,16.413,14.445,16.413,24.446V274.74c0,10-6.269,19.363-16.413,24.444
	l-155.862,77.465C210.725,379.031,205.006,380.461,199.289,380.461z"/>
<path fill="#FFFFFF" d="M247.429,273.787c-68.246,0-82.448-26.987-82.448-49.527c0-2.223,2.029-3.81,4.426-3.81h20.105
	c2.214,0,4.058,1.429,4.427,3.333c2.951,17.62,12.173,26.51,53.305,26.51c32.832,0,46.852-6.348,46.852-21.432
	c0-8.571-3.875-15.079-54.967-19.365c-42.607-3.652-68.983-11.745-68.983-41.113c0-26.985,26.559-43.177,71.011-43.177
	c49.988,0,74.704,14.922,77.838,46.829c0.184,1.111-0.369,2.223-1.105,3.016c-0.923,0.793-2.028,1.27-3.322,1.27h-20.288
	c-2.028,0-3.874-1.27-4.428-3.016c-4.794-18.572-16.6-24.446-48.694-24.446c-35.782,0-40.024,10.794-40.024,18.732
	c0,9.684,4.979,12.541,53.304,18.097c47.959,5.397,70.646,13.173,70.646,42.066C325.082,256.962,296.679,273.787,247.429,273.787z"
	/>
</svg>
