<?xml version="1.0" encoding="utf-8"?>
<!-- Generator: Adobe Illustrator 16.0.0, SVG Export Plug-In . SVG Version: 6.00 Build 0)  -->
<!DOCTYPE svg PUBLIC "-//W3C//DTD SVG 1.1//EN" "http://www.w3.org/Graphics/SVG/1.1/DTD/svg11.dtd">
<svg version="1.1" id="Layer_1" xmlns="http://www.w3.org/2000/svg" xmlns:xlink="http://www.w3.org/1999/xlink" x="0px" y="0px"
	 width="400px" height="400px" viewBox="0 0 400 400" enable-background="new 0 0 400 400" xml:space="preserve">
<g>
	<g>
		<g>
			<path fill="#FFFFFF" d="M208.307,389.882l-10.18-3.357c0,0,2.097-24.661-3.439-41.063c-0.476-1.434,0.197-3.261,1.573-6.807
				c1.08-2.809,1.294-6.473,1.932-9.696c1.287-6.431,1.883-24.524,2.008-23.852c0.777,4.103,0.58,9.148,0.786,12.058
				c0.614,9.115,4.554,20.169,10.981,24.248c0,0-0.786,0.688-2.816,8.566C205.801,362.873,208.307,389.882,208.307,389.882z"/>
			<g>
				<path fill="#FFFFFF" d="M282.354,160.728c-19.959-87.959-67.109-116.87-72.188-127.915c-5.57-7.809-11.188-21.655-11.188-21.655
					v0.192c4.725,18.043,3.932,165.293,4.463,182.931c1.105,36.746-0.008,71.978-2.146,99.268
					c0.409,20.195,3.269,41.935,13.292,46.544C214.588,340.094,303.107,281.806,282.354,160.728z"/>
				<path fill="#FFFFFF" d="M201.967,256.236l-3.775-244.886c-0.13-0.491-0.262-0.938-0.392-1.232
					c-0.573,7.768-0.885,10.795-8.256,18.669c-11.433,8.916-70.066,58.043-74.85,157.988
					c-4.771,99.936,78.257,156.579,78.257,156.579c2.776-6.379,5.602-24.742,7.567-49.805
					C200.108,274.18,201.967,256.236,201.967,256.236z"/>
			</g>
		</g>
	</g>
</g>
</svg>
