<?xml version="1.0" encoding="utf-8"?>
<!-- Generator: Adobe Illustrator 16.0.0, SVG Export Plug-In . SVG Version: 6.00 Build 0)  -->
<!DOCTYPE svg PUBLIC "-//W3C//DTD SVG 1.1//EN" "http://www.w3.org/Graphics/SVG/1.1/DTD/svg11.dtd">
<svg version="1.1" id="Layer_1" xmlns="http://www.w3.org/2000/svg" xmlns:xlink="http://www.w3.org/1999/xlink" x="0px" y="0px"
	 width="400px" height="400px" viewBox="0 0 400 400" enable-background="new 0 0 400 400" xml:space="preserve">
<g id="icomoon-ignore">
	<line fill="none" stroke="#449FDB" x1="24.27" y1="11.5" x2="24.27" y2="11.5"/>
</g>
<path fill="#FFFFFF" d="M363.825,307.104l-0.008,0.017c-0.614-5.464-12.876-12.085-16.863-15.1
	c-7.981-6.039-16.218-12.604-24.733-18.113c-4.461-2.884-12.171-5.113-16.872-7.243c-6.707-3.047-21.478-5.983-25.31-11.479
	c-7.273-10.436-12.278-23.086-17.43-35.629c-5.152-12.559-11.679-25.782-16.862-38.637c-2.573-6.372-3.831-12.11-6.753-18.117
	c-18.122-37.32-44.621-68.602-77.021-90.581c-10.643-7.216-22.354-13.852-35.421-18.118c-7.394-2.413-16.263-1.068-24.174-3.015
	h-5.059c-4.434-1.402-8.139-6.447-11.812-9.058c-7.639-5.435-15.157-9.262-24.179-13.288c-3.4-1.519-12.48-5.116-15.74-2.409
	c-1.912,0.676-2.771,1.543-3.376,3.618c-1.908,3.081-0.16,7.879,1.123,10.872c3.614,8.435,8.832,13.568,13.494,20.53
	c4.212,6.295,9.344,13.456,12.368,20.526c6.34,14.805,9.158,31.25,15.184,45.892c2.315,5.626,5.648,12.042,9,16.909
	c2.703,3.941,7.532,6.923,8.99,12.08c3.065,5.164-4.511,22.792-6.182,28.387c-6.477,21.619-5.11,51.861,2.249,70.653
	c2.907,7.421,5.661,16.085,13.492,18.106c0.577-0.483,0.144-0.218,1.13-0.608c1.662-14.46,2.242-28.409,6.744-39.848
	c2.81-7.156,8.176-12.061,11.812-18.121c2.667,1.654,2.65,6.465,3.928,9.659c3.32,8.268,6.75,17.235,10.69,25.355
	c8.249,17.027,17.306,33.377,27.546,48.312c3.637,5.308,8.529,11.073,12.932,15.706c1.869,1.973,4.162,2.983,5.619,5.431h0.563
	v0.598c-7.55-2.766-12.15-10.956-17.991-15.697c-11.268-9.129-24.555-22.673-32.047-35.627c-3.372-7.244-6.744-14.495-10.122-21.744
	v-0.599c-1.406,2.021-0.97,4.227-1.687,7.243c-3.173,13.287-0.698,28.355-11.808,33.212c-12.7,5.564-21.937-8.937-25.859-15.695
	c-12.781-22.025-16.099-59.014-7.313-88.771c1.95-6.614,2.148-14.715,5.617-19.925c-0.566-4.69-4.114-6.026-6.186-9.058
	c-3.379-4.95-6.324-10.774-8.998-16.302c-5.293-10.934-8.84-23.802-12.931-35.626c-1.663-4.806-1.997-9.353-3.939-13.896
	c-2.949-6.907-8.234-13.788-12.364-19.924c-5.882-8.746-22.336-25.601-15.739-42.875c10.448-27.366,46.613-6.547,60.72,3.015
	c3.541,2.404,7.473,7.362,11.245,9.056c6.182,0.404,12.375,0.804,18.558,1.208c11.52,2.938,22.43,5.179,31.487,10.872
	c42.572,26.743,70.046,53.949,95.582,99.036c5.314,9.398,8.104,19.718,12.363,30.197c6.265,15.359,13.187,31.297,20.251,45.883
	c3.358,6.97,5.743,14.546,10.11,20.53c1.841,2.533,6.77,3.319,9.565,4.834c8.314,4.506,18.013,7.957,25.861,13.287
	c14.143,9.591,27.89,21.091,40.479,32.608c4.811,4.396,7.958,10.832,12.38,15.696v2.424c-3.948,1.197-7.881,2.417-11.812,3.621
	c-8.734,2.417-16.287,1.788-24.742,4.22c-5.027,1.453-11.423,3.566-16.871,4.229l0.567,0.606
	c3.201,9.611,20.423,17.616,28.114,23.545c9.645,7.43,18.713,16.382,25.862,26.566l7.305,7.851c1.663,2.594,2.13,5.991,3.948,8.462
	v0.606c-3.451-1.307-5.222-4.546-7.872-6.645c-5.354-4.227-10.817-8.936-16.312-12.673c-9.311-6.35-20.119-9.971-29.793-16.312
	c-5.439-3.559-10.678-7.957-15.744-12.075c-4.648-3.762-9.854-10.949-12.932-16.304c-1.601-2.798-1.927-6.185-3.932-8.455
	c0.59-4.941,6.449-4.973,10.118-6.635C328.949,308.51,344.056,306.537,363.825,307.104z M103.463,80.724L103.463,80.724
	c2.004,2.082,5.073,3.493,6.667,5.968c1.191,1.86,1.399,3.807,2.777,5.369c0.016,6.356-1.56,10.529-4.996,13.128
	c-0.186,0.199-0.377,0.401-0.56,0.599c-1.854-4.178-3.705-8.357-5.552-12.535c-2.405-3.691-5.836-6.453-7.783-10.743h-0.559v-0.595
	C96.507,81.197,99.387,80.641,103.463,80.724z"/>
</svg>
