<?xml version="1.0" encoding="utf-8"?>
<!-- Generator: Adobe Illustrator 16.0.0, SVG Export Plug-In . SVG Version: 6.00 Build 0)  -->
<!DOCTYPE svg PUBLIC "-//W3C//DTD SVG 1.1//EN" "http://www.w3.org/Graphics/SVG/1.1/DTD/svg11.dtd">
<svg version="1.1" id="Layer_1" xmlns="http://www.w3.org/2000/svg" xmlns:xlink="http://www.w3.org/1999/xlink" x="0px" y="0px"
	 width="400px" height="400px" viewBox="0 0 400 400" enable-background="new 0 0 400 400" xml:space="preserve">
<g>
	<path fill="#FFFFFF" d="M146.394,139.176c-8.209,0-14.006,0.726-17.144,1.443v55.066c3.62,0.958,8.452,1.204,14.488,1.204
		c22.218,0,35.734-10.868,35.734-29.949C179.472,148.832,166.921,139.176,146.394,139.176z"/>
	<path fill="#FFFFFF" d="M10.304,9.107V388.5h379.393V9.107H10.304z M195.18,202.678c-11.833,11.841-30.431,17.383-51.441,17.383
		c-5.546,0-10.621-0.238-14.488-0.957v61.334H99.792V119.856c10.625-1.93,25.356-3.381,45.401-3.381
		c21.736,0,37.672,4.592,48.057,13.276c9.66,7.966,15.936,20.764,15.936,35.985C209.178,181.189,204.354,193.987,195.18,202.678z
		 M252.396,282.846c-14.233,0-27.031-3.373-35.738-8.205l5.789-21.497c6.762,4.122,19.56,8.444,30.188,8.444
		c13.037,0,18.826-5.311,18.826-13.029c0-7.966-4.816-12.072-19.297-17.144c-22.956-7.974-32.62-20.539-32.373-34.287
		c0-20.763,17.151-36.95,44.43-36.95c13.044,0,24.391,3.381,31.152,7.001l-5.797,21.011c-5.071-2.895-14.487-6.762-24.861-6.762
		c-10.637,0-16.426,5.071-16.426,12.327c0,7.487,5.558,11.1,20.539,16.411c21.25,7.733,31.146,18.594,31.393,35.992
		C300.221,267.393,283.548,282.846,252.396,282.846z"/>
</g>
</svg>
