<?xml version="1.0" encoding="utf-8"?>
<!-- Generator: Adobe Illustrator 16.0.0, SVG Export Plug-In . SVG Version: 6.00 Build 0)  -->
<!DOCTYPE svg PUBLIC "-//W3C//DTD SVG 1.1//EN" "http://www.w3.org/Graphics/SVG/1.1/DTD/svg11.dtd">
<svg version="1.1" id="Lager_1" xmlns="http://www.w3.org/2000/svg" xmlns:xlink="http://www.w3.org/1999/xlink" x="0px" y="0px"
	 width="400px" height="400px" viewBox="0 0 400 400" enable-background="new 0 0 400 400" xml:space="preserve">
<path fill="#FFFFFF" d="M395.426,273.471c-1.289-10.507-7.135-18.656-16.066-25.046c2.207,1.577,4.074,2.91-0.043-0.031
	c-5.555-3.965-2.611-1.862-0.035-0.024c-22.021-15.686-50.746-12.199-74.74-3.486c-9.617-15.681-10.035-27.646-4.494-44.764
	c0.717-2.163,0.227-3.363-2.027-4.329c-5.477-2.341-13.359-1.103-18.869,0.357c-1.902,0.499-3.287,1.468-3.709,3.385
	c-3.982,18.731-16.232,35.888-26.91,51.679c-7.52-14.412-6.922-25.564-1.865-40.576c0.617-1.828,0.332-2.8-1.496-3.771
	c-5.609-2.901-14.217-1.477-19.934,0.214c-6.576,1.918-16.451,34.455-19.605,40.908c-6.59,13.477-12.432,34.511-23.63,45.201
	c-9.503-12.213,17.404-39.804,8.408-50.879c-3.042-3.745-8.548-3.648-12.042-0.476c0.838-5.879,1.273-9.742-0.247-14.729
	c-1.608-5.246-5.688-8.257-11.66-8.105c-13.904,0.408-26.148,10.675-34.492,20.396c-7.94,9.352-28.881,15.164-40.141,20.805
	c-19.341-16.85-61.209-34.729-62.3-63.419c-1.18-32.333,37.333-54.275,63.045-67.396c33.439-17.078,84.96-38.329,122.957-19.653
	c10.082,4.956,14.139,15.584,11.363,25.766c-7.238,26.552-36.467,44.267-61.891,52.391c-12.508,3.999-26.246,6.975-39.482,6.201
	c-17.736-1.038-31.547-11.763-33.441-12.429c-1.583-0.3-1.458,1.747-1.041,2.83c18.401,48.239,111.583,12.889,135.95-11.875
	c11.736-11.915,18.863-23.461,21.906-41.641c3.566-21.312-12.08-34.646-23.955-40.144c-60.203-27.871-143.43,8.628-188.952,45.838
	C16.232,152.817-8.48,178.476,2.861,205.392c12.308,29.21,50.018,44.188,74.562,62.052c-19.86,9.87-44.707,20.076-57.576,38.581
	c-7.359,10.607-9.97,21.912-4.49,33.971c9.714,21.3,45.034,12.069,59.937,2.681c13.652-8.599,22.842-20.143,26.81-34.944
	c3.443-12.833,2.736-26.167-2.979-38.255l22.086-11.172c-5.947,17.83-8.574,40.181,3.771,56.292
	c4.947,6.441,17.784,6.702,23.038,0.239c6.812-8.455,11.33-19.049,15.842-28.746c-0.527,7.242-1.434,15.449,1.063,21.761
	c2.867,7.242,9.37,8.724,16.065,4.129c20.492-14.064,33.531-53.044,43.626-75.768c2.744,9.912,5.773,18.968,10.783,28.106
	c1.238,2.243,1.088,3.688-0.615,5.56c-7.482,8.247-25.363,22.003-27.096,33.146c-0.404,2.604,1.324,5.099,4.395,5.693
	c12.031,2.401,25.371-1.956,35.139-8.56c10.191-6.894,13.48-16.292,11.008-27.439c-3.535-16.049,8.494-33.98,19.936-47.154
	c2.1,9.973,5.266,19.572,10.928,28.283c-10.104,8.872-25.174,21.451-23.01,36.267c0.764,5.305,5.514,8.732,11.215,7.522
	c12.195-2.568,22.729-7.814,30.418-17.111c6.973-8.387,4.475-17.539,1.434-26.76c18.445-5.266,37.104-6.317,55.5-0.021
	c8.883,3.02,16.037,8.112,20.281,16.084c5.197,9.77,2.27,18.77-7.766,25.192c-2.539,1.626-4.297,2.961-3.438,3.664
	s3.785,1.633,10.264-2.436c6.479-4.069,10.438-9.567,11.453-16.786C395.648,277.467,395.641,275.471,395.426,273.471z
	 M87.267,292.988c-1.049,12.882-7.445,23.328-17.906,31.766c-5.886,4.758-13.214,8.636-20.491,9.343
	c-7.276,0.709-12.942-1.129-13.426-8.677c-1.363-21.242,31.618-42.05,49.932-48.315c1.561,5.3,2.326,10.56,1.879,15.906
	L87.267,292.988z M166.928,237.008c-3.016,17.236-11.458,48.171-24.967,60.525c-1.82,1.655-3.562,1.56-4.488-0.597
	c-7.993-18.589,2.836-56.919,25.56-62.837C165.704,233.413,167.361,234.549,166.928,237.008z M221.254,300.185
	c6.508-6.923,13.006-13.843,19.523-20.805C241.582,287.122,227.201,302.531,221.254,300.185z M283.617,286.513
	c-1.814,0.982-5.889,1.942-6.049,0.645c-1.145-9.337,9.131-19.219,15.504-23.849C296.514,272.072,292.441,281.724,283.617,286.513z"
	/>
</svg>
