<?xml version="1.0" encoding="utf-8"?>
<!-- Generator: Adobe Illustrator 16.0.0, SVG Export Plug-In . SVG Version: 6.00 Build 0)  -->
<!DOCTYPE svg PUBLIC "-//W3C//DTD SVG 1.1//EN" "http://www.w3.org/Graphics/SVG/1.1/DTD/svg11.dtd">
<svg version="1.1" id="Layer_1" xmlns="http://www.w3.org/2000/svg" xmlns:xlink="http://www.w3.org/1999/xlink" x="0px" y="0px"
	 width="400px" height="400px" viewBox="0 0 400 400" enable-background="new 0 0 400 400" xml:space="preserve">
<g id="icomoon-ignore">
	<line fill="#FFFFFF" stroke="#449FDB" x1="20.786" y1="9.387" x2="20.786" y2="9.387"/>
</g>
<path fill="#FFFFFF" d="M169.309,9.387l-0.018-0.008c0.599,0.069,0.711,0.321,1.787,4.211c1.813,6.544,5.083,15.56,8.482,23.4
	c4.398,10.126,11.953,25.083,18.813,37.169l1.241,2.229c12.541,1.956,27.911,4.566,34.938,5.958
	c37.277,7.416,66.784,17.304,89.509,30.031c16.564,9.273,30.078,20.544,41.241,34.352c3.824,4.727,6.989,9.194,11.631,16.423
	l0.832,1.28l-5.326,0.797c-34.188,5.244-85.779,17.815-132.457,31.693c0.033,0.425,0.12,0.975,0.225,1.562
	c1.474,8.339,2.359,16.83,2.905,27.254c0.321,6.405,0.174,25.271-0.26,30.926c-1.535,20.183-3.878,37.2-6.914,49.958
	c-5.021,21.077-14.344,45.762-27.233,72.086c-3.781,7.736-7.061,13.937-7.528,14.249c-0.251,0.174-5.916,0.166-10.166,0
	c-20.972-0.797-59.047-6.211-78.745-11.189c-11.817-2.982-27.602-8.256-36.943-12.366c-18.315-8.059-34.044-19.888-41.958-31.537
	c-6.188-9.107-7.771-18.96-4.558-28.718c1.787-5.42,5.941-12.463,11.254-19.072c3.569-4.44,10.542-11.362,15.244-15.108
	c0.229-0.184,0.495-0.417,0.736-0.6l-0.48,0.165c39.338-32.344,64.808-61.403,76.898-87.77c6.738-14.709,9.515-27.364,9.15-41.763
	c-0.582-22.433-6.809-38.705-21.108-55.218c-3.161-3.647-28.981-28.818-28.981-28.818c-2.458-2.372-4.67-4.61-5.416-6.475
	c-0.321-0.811-0.472-1.557-0.507-2.203l-0.096-0.1c0-0.477,0.061-0.941,0.16-1.366c0.044-0.23,0.096-0.425,0.157-0.604
	c0.012-0.017,0.03-0.047,0.039-0.064c0.147-0.443,0.317-0.704,0.317-0.704c0.008,0.04,0.03,0.066,0.039,0.101
	c1.205-1.847,4.626-5.179,7.424-7.143c8.596-6.037,22.56-13.045,40.514-20.339c13.253-5.377,33.886-12.806,35.162-12.654V9.387z
	 M168.303,12.345L168.303,12.345c-1.578,0.286-23.418,9.372-31.433,13.101c-6.246,2.901-20.352,10.309-20.109,10.551
	c0.043,0.044,2.646,0.434,5.737,0.858c19.211,2.668,45.752,7.217,51.685,8.865c2.551,0.711,2.515,1.093,0.382-5.291
	c-2.846-8.474-4.657-16.371-5.638-24.489c-0.243-1.926-0.477-3.552-0.511-3.604c-0.008-0.009-0.043-0.009-0.096,0L168.303,12.345z
	 M112.32,38.361h-0.008l2.991,2.832c3.093,2.897,11.119,10.551,21.368,20.46l5.516,5.356c1.891,0.33,3.79,0.668,5.68,0.989
	c0.591-0.26,1.926-1.016,3.401-1.948c6.279-3.923,15.352-8.967,23.591-13.096c2.047-1.023,3.695-1.903,3.635-1.947
	c-0.053-0.043-1.64-0.187-3.566-0.347c-17.087-1.423-48.015-7.346-60.353-11.536L112.32,38.361z M110.043,40.178L110.043,40.178
	l-0.763,0.507c-8.384,5.916-13.313,11.705-13.358,15.625v0.638c0.611,0.229,1.253,0.48,1.813,0.703
	c0.452,0.152,0.898,0.33,1.366,0.477c0.127,0.039,0.235,0.056,0.347,0.099c0.773,0.248,1.566,0.469,2.364,0.703
	c0.018,0.009,0.043,0.026,0.062,0.034c1.388,0.4,2.789,0.798,4.15,1.146c0.824,0.212,1.73,0.425,2.74,0.668
	c0.897,0.213,1.692,0.399,2.455,0.577c0.256,0.062,0.434,0.096,0.703,0.16c0.381,0.087,0.849,0.188,1.18,0.257
	c4.778,1.032,10.967,2.15,16.769,3.152c-0.055-0.152-0.728-1.05-1.66-2.169c-1.006-1.196-5.516-6.756-10.013-12.368L110.043,40.178z
	 M179.604,54.082c-0.078-0.009-0.2,0.043-0.286,0.121c-0.227,0.195-1.458,1.228-2.768,2.329c-5.473,4.61-11.631,8.881-17.728,12.273
	c-0.694,0.382-1.223,0.729-1.275,0.83c9.844,1.63,20.573,3.374,33.185,5.35c-0.018-0.086-0.13-0.229-0.26-0.417
	c-1.492-2.271-7.676-14.051-9.664-18.392c-0.728-1.591-0.962-2.085-1.204-2.103V54.082z M101.084,63.93
	c0,0.043,1.253,1.11,2.805,2.325c12.424,9.771,23.18,21.896,29.963,33.821c0.728,1.28,1.388,2.281,1.439,2.23
	c0.069-0.053-0.512-2.324-1.275-5.07c-2.003-7.187-7.871-25.899-8.262-26.336c-0.035-0.043-2.909-0.824-6.401-1.722
	c-2.736-0.703-5.338-1.384-7.684-2.042c-3.348-0.934-6.207-1.813-8.384-2.551c-1.184-0.399-2.167-0.702-2.202-0.663V63.93z
	 M129.684,71.836c-0.047,0-0.065,0.018-0.065,0.035c0,0.104,0.517,1.296,1.145,2.646c3.913,8.4,8.292,20.348,10.391,28.44
	c0.313,1.206,0.624,2.203,0.668,2.203c0.043,0,1.457-1.379,3.148-3.066c4.224-4.203,10.008-8.821,16.454-13.135
	c2.584-1.731,10.304-6.341,12.211-7.298c0.859-0.439,1.57-0.89,1.57-0.99c0-0.096-1.554-0.442-3.453-0.762
	c-11.372-1.909-29.056-5.34-38.961-7.525c-1.531-0.333-2.819-0.554-3.122-0.538L129.684,71.836z M180.03,81.398L180.03,81.398
	c-0.556-0.187-16.445,12.16-22.343,17.373c-3.087,2.727-10.27,9.94-10.27,10.295c0,0.121,4.034,1.313,8.969,2.681
	c8.656,2.397,18.768,5.381,24.952,7.364l2.993,0.957l0.19-0.602c0.104-0.331,0.26-2.576,0.348-5.01
	c0.329-8.729-0.677-18.179-2.801-26.592c-1.11-4.389-1.709-6.358-2.038-6.475V81.398z M184.019,81.974
	c-0.043,0.044,0.304,0.934,0.738,1.948c4.042,9.406,6.244,20.534,6.252,31.562c0,2.034,0.044,3.696,0.096,3.696
	c0.061,0,2.506-1.644,5.481-3.63c11.32-7.568,22.699-13.73,38.069-20.66c3.885-1.748,5.082-2.442,4.754-2.585
	c-0.703-0.295-12.422-2.728-20.506-4.271c-10.842-2.077-34.693-6.228-34.875-6.06H184.019z M245.738,94.179
	c-0.227-0.222-12.967,6.894-20.885,11.635c-9.889,5.933-28.554,18.288-28.172,18.651c0.088,0.096,2.116,0.951,4.459,1.909
	c8.395,3.465,16.045,7.211,22.802,11.155c1.795,1.049,3.349,1.859,3.477,1.82c0.123-0.035,1.198-1.791,2.421-3.924
	c6.896-12.07,12.524-24.923,14.632-33.571c0.677-2.779,1.458-7.497,1.284-7.685L245.738,94.179z M250.135,94.881
	c-0.147,0-0.321,0.88-0.423,1.943c-1.033,11.726-5.058,25.508-11.251,38.674c-0.763,1.613-1.291,2.966-1.179,2.966
	s1.569-0.582,3.287-1.28c20.607-8.365,42.013-14.992,66.983-20.72l2.968-0.703l-4.242-1.908
	c-10.199-4.636-25.934-10.369-39.567-14.445C261.246,97.777,250.673,94.881,250.135,94.881z M144.937,119.049
	c-0.052,0.051,0.086,1.436,0.329,3.053c1.839,12.755,2.117,25.279,0.798,35.037c-0.069,0.446-0.017,0.828,0.096,0.828
	c0.112,0,2.333-2.042,4.935-4.559c8.777-8.482,16.098-15.131,23.687-21.483c1.891-1.578,3.443-2.932,3.443-2.993
	c0-0.364-14.051-5.06-20.659-6.916c-4.389-1.237-12.446-3.136-12.611-2.967H144.937z M314.57,119.209
	c-0.104-0.109-7.633,2.068-14.701,4.233c-13.4,4.116-31.302,10.482-44.408,15.812c-7.528,3.061-17.382,7.298-17.372,7.458
	c0,0.07,0.537,0.507,1.18,0.989c0.65,0.477,2.584,2.069,4.31,3.504c9.237,7.685,16.976,16.236,23.496,25.989
	c0.851,1.271,1.597,2.33,1.656,2.33c0.062,0,2.004-2.403,4.312-5.321c2.306-2.932,9.158-11.583,15.238-19.229
	c11.57-14.55,16.644-21.158,20.148-26.176c2.402-3.435,6.271-9.476,6.158-9.588H314.57z M319.003,120.389
	c-0.062,0.152-1.258,2.628-2.681,5.482c-9.498,19.171-17.547,29.892-35.23,46.893c-2.846,2.735-5.083,5.007-4.971,5.007
	c0.113,0,1.873-0.434,3.93-0.922c30.104-7.239,61.39-12.442,85.849-14.28c3.174-0.244,5.776-0.425,5.811-0.444
	c0.104-0.065-7.469-7.932-10.555-10.972c-10.886-10.685-24.719-21.084-38.831-29.168c-1.684-0.967-3.104-1.631-3.313-1.587
	L319.003,120.389z M189.726,133.651c-0.191-0.047-0.452,0.538-0.676,1.526c-2.412,11.11-6.591,22.485-11.788,32.01
	c-1.552,2.849-1.64,3.061-1.405,3.061c0.069,0,2.421-1.392,5.195-3.087c9.766-5.963,19.082-11.12,30-16.584
	c3.443-1.722,6.236-3.169,6.186-3.222c-0.391-0.372-8.275-4.566-13.479-7.178c-5.698-2.849-13.218-6.352-14.034-6.535V133.651z
	 M182.136,134.991c-0.147-0.145-11.682,9.076-17.147,13.712c-7.65,6.466-17.58,15.491-17.572,15.967c0,0.108,1.266,0.828,2.81,1.627
	c3.938,2.024,7.026,4.336,10.809,8l3.286,3.128l1.441-2.325c0.789-1.298,2.143-3.686,3.061-5.322
	c3.868-6.965,7.894-16.228,10.27-23.592c1.241-3.833,3.209-11.028,3.062-11.188L182.136,134.991z M228.305,153.99l-2.047,3.061
	c-10.121,15.135-23.678,30.678-39.021,44.789c-5.993,5.508-5.663,5.231-5.317,5.231c0.157,0,2.438-0.807,5.092-1.782
	c23.989-8.813,44.554-15.409,71.165-22.799l4.71-1.309l-0.737-0.738c-1.319-1.383-7.686-7.112-10.963-9.848
	c-5.881-4.884-13.557-10.578-20.054-14.797L228.305,153.99z M216.154,157.017c-0.148-0.143-11.389,5.569-18.71,9.502
	c-10.668,5.72-27.598,15.391-28.7,16.389c-0.278,0.247-0.061,0.875,1.275,3.569c3.148,6.362,4.927,13.881,4.944,20.914
	c0,1.333,0.104,2.188,0.26,2.135c0.122-0.048,2.603-2.906,5.508-6.344c6.973-8.24,17.113-20.898,22.803-28.463
	c4.753-6.335,12.768-17.559,12.62-17.694V157.017z M142.803,174.984c-0.139,0-0.704,1.313-1.232,2.932
	c-1.283,3.899-3.062,8.374-4.856,12.146c-2.013,4.246-3.938,7.588-7.78,13.456c-0.577,0.881-0.407,0.755,4.718-3.312
	c4.857-3.864,13.244-10.213,18.743-14.182c1.977-1.423,3.496-2.65,3.383-2.746c-2.939-2.454-6.271-4.709-9.982-6.761
	c-1.519-0.832-2.854-1.525-2.993-1.525V174.984z M162.354,190.322c-0.037,0.009-0.087,0.009-0.123,0.035
	c-0.139,0.087-1.214,1.396-2.429,2.871c-11.293,13.817-26.279,27.638-43.675,40.263c-2.194,1.597-3.984,2.932-3.984,3
	c0,0.062,2.306-1.058,5.16-2.489c2.85-1.432,7.248-3.513,9.724-4.657c8.864-4.054,21.969-9.519,36.219-15.039l7.937-3.093
	l-0.121-1.149c-0.66-5.368-3.191-11.978-6.505-16.926c-1.562-2.346-1.926-2.839-2.202-2.805V190.322z M153.332,192.552
	c-0.226-0.231-19.896,13.117-28.501,19.316c-3.188,2.302-3.586,2.684-5.772,5.516c-3.304,4.297-6.235,7.744-10.044,11.891
	c-6.04,6.583-6.526,7.147-6.153,6.922c0.204-0.122,1.782-1.109,3.509-2.204c13.755-8.729,24.848-17.675,36.05-29.103
	C146.906,200.323,153.567,192.781,153.332,192.552z M231.22,199.499c-11.25,3.427-22.108,6.935-32.265,10.391
	c1.942,1.492,12.715,8.664,18.458,12.272c6.643,4.172,16.044,9.688,16.505,9.688c0.146,0,0.165-1.553,0.061-3.946
	c-0.425-10.006-1.944-25.066-2.776-28.405H231.22z M192.805,212.001c-0.529,0.188-1.076,0.355-1.588,0.542
	c-0.069,0.756-0.086,2.195-0.103,5.07c-0.061,11.73-2.265,26.354-6.176,40.838c-0.469,1.762-0.799,3.191-0.711,3.191
	c0.104,0,2.48-1.014,5.299-2.271c16.16-7.182,29.36-14.26,39.95-21.459c4.97-3.364,4.71-3,2.55-3.947
	c-6.955-3.044-23.209-12.064-35.205-19.575c-2.012-1.262-3.218-1.999-4.007-2.39H192.805z M183.81,215.188
	c-2.003,0.729-4.059,1.483-5.967,2.204c-8.967,3.373-17.529,6.694-25.75,10.044c0.381,1.283,2.039,5.271,3.149,7.458
	c2.601,5.127,6.166,10.322,10.685,15.561c2.637,3.07,10.582,10.789,10.808,10.52c0.103-0.112,0.71-1.95,1.343-4.076
	c2.654-8.941,4.312-16.783,5.317-25.281c0.381-3.202,0.632-14.091,0.416-16.419V215.188z M146.029,229.959
	c-0.797,0.331-1.605,0.66-2.394,0.98c-0.061,0.147-0.139,0.313-0.19,0.513c-0.174,0.563-1.146,3.113-2.151,5.681
	c-5.778,14.728-16.098,35.561-22.92,46.229c-1.527,2.386-1.705,2.707-1.18,2.516c0.169-0.061,4.583-1.491,9.823-3.192
	c13.73-4.44,25.707-8.611,36.697-12.775c9.479-3.599,9.358-3.529,8.994-3.859c-0.19-0.156-1.492-1.267-2.87-2.446
	c-4.312-3.694-9.445-9.254-13.401-14.477c-3.608-4.777-7.771-12.219-9.627-17.25c-0.329-0.885-0.624-1.622-0.797-1.908
	L146.029,229.959z M133.947,235.094c-11.635,5.057-22.568,10.139-32.971,15.326c-0.343,0.537-0.552,1.396-0.959,3.349
	c-1.02,4.892-1.163,12.767-0.321,17.312c0.855,4.595,2.498,9.54,4.472,13.46c0.893,1.787,1.01,1.909,1.304,1.492
	c0.178-0.251,1.484-2.309,2.902-4.588c8.226-13.176,14.432-23.983,20.056-34.938C130.847,241.799,133.28,236.75,133.947,235.094z
	 M234.333,238.572l-0.858,0.72c-1.18,1.041-6.497,4.9-10.044,7.27c-9.48,6.33-20.383,12.696-31.797,18.612
	c-2.87,1.493-5.256,2.767-5.308,2.836c-0.243,0.226,7.927,5.256,13.573,8.344c8.525,4.675,17.997,8.708,26.715,11.413
	c1.968,0.617,3.615,1.11,3.635,1.086c0.016-0.026,0.319-1.899,0.666-4.173c2.004-12.949,3.4-30.713,3.409-43.679v-2.454
	L234.333,238.572z M90.364,255.841c-2.832,1.493-5.659,2.983-8.417,4.493c-4.736,2.593-8.183,4.501-11.093,6.184
	c-6.184,3.79-10.447,7.269-15.565,12.559c-9.084,9.386-15.568,20.592-16.891,29.108c-0.151,0.981-0.134,1.075,0.286,0.955
	c0.255-0.078,3.4-0.972,6.978-1.944c12.082-3.305,50.492-14.536,50.913-14.883c0.043-0.052-0.873-2.048-2.043-4.44
	c-4.218-8.568-5.606-14.831-5.134-23.331c0.104-1.942,0.382-4.735,0.638-6.229c0.278-1.596,0.38-2.254,0.321-2.48L90.364,255.841z
	 M180.862,271.965c-0.035,0.035-0.347,1.023-0.729,2.202c-3.729,11.484-11.005,28.016-18.292,41.633
	c-1.311,2.447-2.386,4.528-2.386,4.598c0,0.051,0.608-0.165,1.336-0.451c0.728-0.278,4.406-1.666,8.188-3.088
	c25.95-9.73,51.329-20.305,59.047-24.58l1.849-1.023l-1.344-0.321c-14.763-3.374-32.093-10.104-44.504-17.286
	c-1.708-0.989-3.114-1.734-3.148-1.683H180.862z M171.615,275c-0.035-0.052-1.907,0.711-4.163,1.685
	c-15.985,6.886-32.03,12.437-50.986,17.631l-5.322,1.467l1.023,1.283c7.161,9.029,18.068,18.31,30.383,25.847
	c2.073,1.267,3.825,2.29,3.895,2.29c0.07,0,1.891-3.098,4.042-6.912c8.464-15.006,15.092-28.371,20.156-40.618
	c0.59-1.439,1.024-2.637,0.989-2.681L171.615,275z M229.042,295.019c-0.191-0.034-1.04,0.372-2.168,1.041
	c-9.376,5.638-36.767,18.786-63.22,30.322c-4.371,1.916-7.885,3.538-7.781,3.644c0.312,0.294,6.184,2.888,10.226,4.526
	c14.493,5.812,29.924,10.166,47.184,13.288c0.347,0.069,0.693,0.146,0.762,0.164c0.069,0.018,1.268-3.599,2.69-8.04
	c3.183-10.052,4.891-15.768,6.955-23.019c2.438-8.647,5.387-20.573,5.387-21.865C229.077,295.053,229.067,295.026,229.042,295.019
	L229.042,295.019z M96.534,299.537c-0.034-0.025-2.805,0.633-6.152,1.44c-3.349,0.807-12.704,3.001-20.783,4.875
	c-14.548,3.373-30.047,7.016-30.889,7.268c-0.586,0.174-0.586,1.587,0.035,4.362c1.331,6.019,4.735,12.559,9.727,18.787
	c2.424,3.019,7.754,8.43,10.807,10.987l2.611,2.205l2.424-3.765c1.339-2.081,3.695-5.595,5.26-7.815
	c1.562-2.202,5.78-8.101,9.368-13.132C89.27,310.293,96.679,299.668,96.534,299.537z M103.972,302.417h0.009l-10.244,12.334
	c-14.965,18.023-21.812,26.704-27.256,34.598l-1.687,2.386l1.084,0.763c0.586,0.425,1.111,0.755,1.145,0.763
	c0.036,0.009,7.638-2.61,16.893-5.837c16.405-5.716,51.888-18.318,52.312-18.586c0.121-0.069-1.284-1.017-3.122-2.073
	c-10.387-6.003-18.895-12.959-27.26-22.273L103.972,302.417z M150.366,335.541c-0.043,0.051-1.648,2.463-3.539,5.351
	c-6.929,10.557-15.225,21.728-23.583,31.719c-1.695,2.03-3.091,3.809-3.091,3.929c0,0.261,1.965,0.755,2.523,0.642
	c0.204-0.042,4.154-1.162,8.765-2.489c24.866-7.155,55.371-16.148,65.345-19.289c6.296-1.978,14.814-4.848,15.212-5.099
	c0.2-0.131-0.449-0.278-1.752-0.382c-8.447-0.712-22.688-3.176-32.551-5.639c-8.039-2.013-13.99-3.868-21.544-6.696
	c-3.132-1.179-5.733-2.097-5.776-2.046H150.366z M140.096,335.818c-0.035-0.035-1.491,0.391-3.226,0.919
	c-9.232,2.88-23.31,6.869-48.77,13.808c-9.576,2.61-17.533,4.771-17.668,4.814c-0.46,0.139,5.43,3.842,10.048,6.34
	c3.695,1.995,8.704,4.302,13.518,6.219c3.881,1.535,18.543,6.731,20.62,7.295l0.897,0.225l1.687-2.966
	c0.932-1.63,2.664-4.492,3.855-6.375c1.188-1.883,4.653-7.364,7.72-12.177c7.242-11.414,11.387-18.031,11.318-18.11V335.818z
	 M212.407,352.783l0.009,0.009c-0.383,0.077-1.926,0.72-3.73,1.562c-11.432,5.317-22.741,9.705-34.173,13.201
	c-9.072,2.767-17.997,5.021-36.601,9.21l-8.708,1.944l1.431,0.32c6.115,1.387,30.374,5.637,44.84,7.832
	c8.266,1.258,21.953,3.148,22.924,3.184c0.399,0.017,0.668-0.4,1.439-2.256c3.445-8.283,12.889-34.398,12.655-35.006
	c-0.009-0.008-0.044-0.008-0.097,0H212.407z"/>
</svg>
