<?xml version="1.0" encoding="utf-8"?>
<!-- Generator: Adobe Illustrator 16.0.0, SVG Export Plug-In . SVG Version: 6.00 Build 0)  -->
<!DOCTYPE svg PUBLIC "-//W3C//DTD SVG 1.1//EN" "http://www.w3.org/Graphics/SVG/1.1/DTD/svg11.dtd">
<svg version="1.1" id="Layer_1" xmlns="http://www.w3.org/2000/svg" xmlns:xlink="http://www.w3.org/1999/xlink" x="0px" y="0px"
	 width="400px" height="400px" viewBox="0 0 400 400" enable-background="new 0 0 400 400" xml:space="preserve">
<path fill="#FFFFFF" d="M309.354,62.803C272.293,32.909,256.168,16.028,201,7.353C140.08,4.429,97.078,56.862,67.183,88.265
	c-29.894,37.061-46.774,53.188-55.45,108.354C8.81,257.54,61.242,300.542,92.646,330.436
	c37.061,29.896,53.188,46.775,108.354,55.451c60.92,2.923,103.923-49.51,133.816-80.912c29.896-37.062,46.775-53.187,55.451-108.355
	C393.19,135.699,340.758,92.697,309.354,62.803z M303.225,294.885c0,0-12.637-21.031-33.572-21.031
	c-20.274,0-32.251,21.031-73.179,21.031c-91.003,0-134.1-76.01-134.1-76.01c81.95,54.036,137.966,15.749,137.966,15.749
	C163.373,213.217,84.818,110.709,84.818,110.709c68.464,58.279,97.981,73.557,97.981,73.557
	c-17.729-14.523-67.238-85.816-67.238-85.816c39.607,40.079,118.352,95.907,118.352,95.907C256.451,132.683,212.6,77.42,212.6,77.42
	c107.129,72.896,72.426,153.055,72.426,153.055S315.485,264.801,303.225,294.885z"/>
</svg>
